<svg width="539" height="615" viewBox="0 0 539 615" fill="none" xmlns="http://www.w3.org/2000/svg">
<g filter="url(#filter0_d)">
<path d="M68.4208 290.5H117.821L118.771 309.31H117.061C114.401 302.913 111.614 298.543 108.701 296.2C105.787 293.793 101.512 292.59 95.8758 292.59H92.5508V321.945H95.7808C98.7574 321.945 101.259 320.837 103.286 318.62C105.312 316.34 106.737 313.3 107.561 309.5H108.986V337.62H107.371C106.231 332.87 104.679 329.482 102.716 327.455C100.816 325.428 98.1875 324.415 94.8308 324.415H92.5508V354.91H96.1608C101.987 354.91 106.927 353.168 110.981 349.685C115.097 346.202 117.916 341.737 119.436 336.29H121.336L120.576 357H68.4208V354.91H74.0258V292.59H68.4208V290.5ZM120.977 313.49V311.78H149.382V313.49H143.397L154.797 345.03L165.057 313.49H158.692V311.78H171.517V313.49H167.337L153.277 357H142.447L124.872 313.49H120.977ZM195.061 357.95C186.891 357.95 180.748 355.86 176.631 351.68C172.578 347.437 170.551 341.578 170.551 334.105C170.551 326.568 172.831 320.805 177.391 316.815C182.014 312.825 187.873 310.83 194.966 310.83C209.343 310.83 216.246 318.05 215.676 332.49H188.886V336.195C188.886 342.402 189.678 347.088 191.261 350.255C192.844 353.422 195.599 355.005 199.526 355.005C206.873 355.005 211.686 351.078 213.966 343.225L215.676 343.51C214.473 348.07 212.288 351.617 209.121 354.15C206.018 356.683 201.331 357.95 195.061 357.95ZM188.981 330.59H198.766V325.935C198.766 320.805 198.449 317.322 197.816 315.485C197.246 313.585 196.043 312.635 194.206 312.635C192.433 312.635 191.103 313.648 190.216 315.675C189.393 317.638 188.981 321.058 188.981 325.935V330.59ZM219.25 311.78H242.145V320.52C243.159 317.607 244.71 315.263 246.8 313.49C248.89 311.717 252.057 310.83 256.3 310.83C266.117 310.83 271.025 316.118 271.025 326.695V355.29H276.345V357H249.46V355.29H253.355V324.415C253.355 320.615 253.102 318.177 252.595 317.1C252.089 315.96 251.17 315.39 249.84 315.39C247.814 315.39 246.009 316.72 244.425 319.38C242.905 322.04 242.145 325.27 242.145 329.07V355.29H246.23V357H219.25V355.29H224.475V313.49H219.25V311.78ZM281.887 343.415V313.49H276.662V311.78H281.887V299.525L299.557 295.155V311.78H311.907V313.49H299.557V345.505C299.557 348.482 299.842 350.667 300.412 352.06C301.045 353.453 302.312 354.15 304.212 354.15C306.112 354.15 307.758 353.2 309.152 351.3C310.608 349.4 311.558 346.803 312.002 343.51L313.617 343.7C313.11 348.07 311.717 351.553 309.437 354.15C307.157 356.683 303.388 357.95 298.132 357.95C292.875 357.95 288.853 356.905 286.067 354.815C283.28 352.725 281.887 348.925 281.887 343.415Z" fill="#151515"/>
</g>
<g filter="url(#filter1_d)">
<path d="M263.45 234.74C263.45 213.747 272.537 196.513 290.71 183.04C308.883 169.567 336.143 162.83 372.49 162.83C408.837 162.83 436.723 169.567 456.15 183.04C475.89 196.513 485.76 216.723 485.76 243.67C485.76 252.443 484.977 260.433 483.41 267.64C481.843 274.533 478.24 281.897 472.6 289.73C467.273 297.25 461.947 303.987 456.62 309.94C451.607 315.893 442.833 323.727 430.3 333.44C411.5 348.48 391.76 363.52 371.08 378.56C350.4 393.287 338.337 401.903 334.89 404.41L306.22 425.09H419.02C440.64 425.09 455.993 420.39 465.08 410.99C474.167 401.59 480.59 386.863 484.35 366.81H492.34L487.64 497H266.74V442.48L314.21 398.77C346.483 369.317 369.357 343.153 382.83 320.28C396.303 297.093 403.04 271.713 403.04 244.14C403.04 216.253 400.063 197.297 394.11 187.27C388.157 176.93 378.13 171.76 364.03 171.76C349.93 171.76 340.06 175.363 334.42 182.57C328.78 189.777 325.96 196.67 325.96 203.25C325.96 209.83 326.9 215.627 328.78 220.64H342.88C345.387 227.22 346.64 235.21 346.64 244.61C346.64 253.697 342.723 261.687 334.89 268.58C327.057 275.16 316.717 278.45 303.87 278.45C291.023 278.45 280.997 274.377 273.79 266.23C266.897 257.77 263.45 247.273 263.45 234.74Z" fill="#151515"/>
</g>
<g filter="url(#filter2_d)">
<path d="M313.356 531.5H338.721V533.305H333.496V596.195H338.721V598H309.746V596.195H314.971V536.82H314.591L300.341 598H288.466L271.746 536.535H271.366V596.195H276.591V598H263.671V596.195H268.896V533.305H263.671V531.5H289.321L301.956 580.425L313.356 531.5ZM364.832 575.675H367.587V568.36C367.587 562.343 367.238 558.322 366.542 556.295C365.908 554.205 364.642 553.16 362.742 553.16C361.602 553.16 360.557 553.477 359.607 554.11C358.72 554.68 358.277 555.503 358.277 556.58C358.277 557.593 358.467 558.638 358.847 559.715H361.222C361.728 561.045 361.982 562.66 361.982 564.56C361.982 566.397 361.19 568.012 359.607 569.405C358.023 570.735 356.028 571.4 353.622 571.4C348.175 571.4 345.452 568.772 345.452 563.515C345.452 555.725 352.07 551.83 365.307 551.83C372.843 551.83 378.037 553.128 380.887 555.725C383.8 558.258 385.257 562.945 385.257 569.785V589.07C385.257 592.363 386.175 594.01 388.012 594.01C390.165 594.01 391.432 590.748 391.812 584.225L393.237 584.32C392.983 589.893 391.938 593.725 390.102 595.815C388.265 597.905 385.257 598.95 381.077 598.95C373.477 598.95 369.107 596.607 367.967 591.92C367.143 594.327 365.908 596.1 364.262 597.24C362.615 598.38 360.208 598.95 357.042 598.95C347.668 598.95 342.982 595.118 342.982 587.455C342.982 582.958 344.755 579.887 348.302 578.24C351.912 576.53 357.422 575.675 364.832 575.675ZM361.032 587.36C361.032 590.653 361.19 592.775 361.507 593.725C361.887 594.675 362.552 595.15 363.502 595.15C364.515 595.15 365.433 594.358 366.257 592.775C367.143 591.128 367.587 588.88 367.587 586.03V577.195H366.922C362.995 577.195 361.032 580.077 361.032 585.84V587.36ZM425.235 598V596.29H429.605L418.87 574.25L417.065 574.725V596.29H421.435V598H394.17V596.29H399.395V528.46H393.79V526.75H417.065V572.825L418.585 572.255L439.96 554.49H431.03V552.78H449.745V554.49H443.095L431.79 564.085L448.225 596.29H451.645V598H425.235ZM475.654 598.95C467.484 598.95 461.341 596.86 457.224 592.68C453.171 588.437 451.144 582.578 451.144 575.105C451.144 567.568 453.424 561.805 457.984 557.815C462.608 553.825 468.466 551.83 475.559 551.83C489.936 551.83 496.839 559.05 496.269 573.49H469.479V577.195C469.479 583.402 470.271 588.088 471.854 591.255C473.438 594.422 476.193 596.005 480.119 596.005C487.466 596.005 492.279 592.078 494.559 584.225L496.269 584.51C495.066 589.07 492.881 592.617 489.714 595.15C486.611 597.683 481.924 598.95 475.654 598.95ZM469.574 571.59H479.359V566.935C479.359 561.805 479.043 558.322 478.409 556.485C477.839 554.585 476.636 553.635 474.799 553.635C473.026 553.635 471.696 554.648 470.809 556.675C469.986 558.638 469.574 562.058 469.574 566.935V571.59Z" fill="#151515"/>
</g>
<defs>
<filter id="filter0_d" x="68.4208" y="290.5" width="257.196" height="79.45" filterUnits="userSpaceOnUse" color-interpolation-filters="sRGB">
<feFlood flood-opacity="0" result="BackgroundImageFix"/>
<feColorMatrix in="SourceAlpha" type="matrix" values="0 0 0 0 0 0 0 0 0 0 0 0 0 0 0 0 0 0 127 0"/>
<feOffset dx="6" dy="6"/>
<feGaussianBlur stdDeviation="3"/>
<feColorMatrix type="matrix" values="0 0 0 0 0 0 0 0 0 0 0 0 0 0 0 0 0 0 0.35 0"/>
<feBlend mode="normal" in2="BackgroundImageFix" result="effect1_dropShadow"/>
<feBlend mode="normal" in="SourceGraphic" in2="effect1_dropShadow" result="shape"/>
</filter>
<filter id="filter1_d" x="263.45" y="162.83" width="240.89" height="346.17" filterUnits="userSpaceOnUse" color-interpolation-filters="sRGB">
<feFlood flood-opacity="0" result="BackgroundImageFix"/>
<feColorMatrix in="SourceAlpha" type="matrix" values="0 0 0 0 0 0 0 0 0 0 0 0 0 0 0 0 0 0 127 0"/>
<feOffset dx="6" dy="6"/>
<feGaussianBlur stdDeviation="3"/>
<feColorMatrix type="matrix" values="0 0 0 0 0 0 0 0 0 0 0 0 0 0 0 0 0 0 0.35 0"/>
<feBlend mode="normal" in2="BackgroundImageFix" result="effect1_dropShadow"/>
<feBlend mode="normal" in="SourceGraphic" in2="effect1_dropShadow" result="shape"/>
</filter>
<filter id="filter2_d" x="263.671" y="526.75" width="244.63" height="84.2" filterUnits="userSpaceOnUse" color-interpolation-filters="sRGB">
<feFlood flood-opacity="0" result="BackgroundImageFix"/>
<feColorMatrix in="SourceAlpha" type="matrix" values="0 0 0 0 0 0 0 0 0 0 0 0 0 0 0 0 0 0 127 0"/>
<feOffset dx="6" dy="6"/>
<feGaussianBlur stdDeviation="3"/>
<feColorMatrix type="matrix" values="0 0 0 0 0 0 0 0 0 0 0 0 0 0 0 0 0 0 0.35 0"/>
<feBlend mode="normal" in2="BackgroundImageFix" result="effect1_dropShadow"/>
<feBlend mode="normal" in="SourceGraphic" in2="effect1_dropShadow" result="shape"/>
</filter>
</defs>
</svg>
