<svg width="242" height="111" viewBox="0 0 242 111" fill="none" xmlns="http://www.w3.org/2000/svg">
<path d="M4.20766 60.5H22.4077L22.7577 67.43H22.1277C21.1477 65.0733 20.121 63.4633 19.0477 62.6C17.9743 61.7133 16.3993 61.27 14.3227 61.27H13.0977V72.085H14.2877C15.3843 72.085 16.306 71.6767 17.0527 70.86C17.7993 70.02 18.3243 68.9 18.6277 67.5H19.1527V77.86H18.5577C18.1377 76.11 17.566 74.8617 16.8427 74.115C16.1427 73.3683 15.1743 72.995 13.9377 72.995H13.0977V84.23H14.4277C16.5743 84.23 18.3943 83.5883 19.8877 82.305C21.4043 81.0217 22.4427 79.3767 23.0027 77.37H23.7027L23.4227 85H4.20766V84.23H6.27266V61.27H4.20766V60.5ZM23.5703 68.97V68.34H34.0353V68.97H31.8303L36.0303 80.59L39.8103 68.97H37.4653V68.34H42.1903V68.97H40.6503L35.4703 85H31.4803L25.0053 68.97H23.5703ZM50.8646 85.35C47.8546 85.35 45.5912 84.58 44.0746 83.04C42.5812 81.4767 41.8346 79.3183 41.8346 76.565C41.8346 73.7883 42.6746 71.665 44.3546 70.195C46.0579 68.725 48.2162 67.99 50.8296 67.99C56.1262 67.99 58.6696 70.65 58.4596 75.97H48.5896V77.335C48.5896 79.6217 48.8812 81.3483 49.4646 82.515C50.0479 83.6817 51.0629 84.265 52.5096 84.265C55.2162 84.265 56.9896 82.8183 57.8296 79.925L58.4596 80.03C58.0162 81.71 57.2112 83.0167 56.0446 83.95C54.9012 84.8833 53.1746 85.35 50.8646 85.35ZM48.6246 75.27H52.2296V73.555C52.2296 71.665 52.1129 70.3817 51.8796 69.705C51.6696 69.005 51.2262 68.655 50.5496 68.655C49.8962 68.655 49.4062 69.0283 49.0796 69.775C48.7762 70.4983 48.6246 71.7583 48.6246 73.555V75.27ZM59.7764 68.34H68.2114V71.56C68.5848 70.4867 69.1564 69.6233 69.9264 68.97C70.6964 68.3167 71.8631 67.99 73.4264 67.99C77.0431 67.99 78.8514 69.9383 78.8514 73.835V84.37H80.8114V85H70.9064V84.37H72.3414V72.995C72.3414 71.595 72.2481 70.6967 72.0614 70.3C71.8748 69.88 71.5364 69.67 71.0464 69.67C70.2998 69.67 69.6348 70.16 69.0514 71.14C68.4914 72.12 68.2114 73.31 68.2114 74.71V84.37H69.7164V85H59.7764V84.37H61.7014V68.97H59.7764V68.34ZM82.8529 79.995V68.97H80.9279V68.34H82.8529V63.825L89.3629 62.215V68.34H93.9129V68.97H89.3629V80.765C89.3629 81.8617 89.4679 82.6667 89.6779 83.18C89.9113 83.6933 90.3779 83.95 91.0779 83.95C91.7779 83.95 92.3846 83.6 92.8979 82.9C93.4346 82.2 93.7846 81.2433 93.9479 80.03L94.5429 80.1C94.3563 81.71 93.8429 82.9933 93.0029 83.95C92.1629 84.8833 90.7746 85.35 88.8379 85.35C86.9013 85.35 85.4196 84.965 84.3929 84.195C83.3663 83.425 82.8529 82.025 82.8529 79.995Z" fill="#151515"/>
<path d="M169.447 80.5H178.792V81.165H176.867V104.335H178.792V105H168.117V104.335H170.042V82.46H169.902L164.652 105H160.277L154.117 82.355H153.977V104.335H155.902V105H151.142V104.335H153.067V81.165H151.142V80.5H160.592L165.247 98.525L169.447 80.5ZM188.412 96.775H189.427V94.08C189.427 91.8633 189.298 90.3817 189.042 89.635C188.808 88.865 188.342 88.48 187.642 88.48C187.222 88.48 186.837 88.5967 186.487 88.83C186.16 89.04 185.997 89.3433 185.997 89.74C185.997 90.1133 186.067 90.4983 186.207 90.895H187.082C187.268 91.385 187.362 91.98 187.362 92.68C187.362 93.3567 187.07 93.9517 186.487 94.465C185.903 94.955 185.168 95.2 184.282 95.2C182.275 95.2 181.272 94.2317 181.272 92.295C181.272 89.425 183.71 87.99 188.587 87.99C191.363 87.99 193.277 88.4683 194.327 89.425C195.4 90.3583 195.937 92.085 195.937 94.605V101.71C195.937 102.923 196.275 103.53 196.952 103.53C197.745 103.53 198.212 102.328 198.352 99.925L198.877 99.96C198.783 102.013 198.398 103.425 197.722 104.195C197.045 104.965 195.937 105.35 194.397 105.35C191.597 105.35 189.987 104.487 189.567 102.76C189.263 103.647 188.808 104.3 188.202 104.72C187.595 105.14 186.708 105.35 185.542 105.35C182.088 105.35 180.362 103.938 180.362 101.115C180.362 99.4583 181.015 98.3267 182.322 97.72C183.652 97.09 185.682 96.775 188.412 96.775ZM187.012 101.08C187.012 102.293 187.07 103.075 187.187 103.425C187.327 103.775 187.572 103.95 187.922 103.95C188.295 103.95 188.633 103.658 188.937 103.075C189.263 102.468 189.427 101.64 189.427 100.59V97.335H189.182C187.735 97.335 187.012 98.3967 187.012 100.52V101.08ZM210.666 105V104.37H212.276L208.321 96.25L207.656 96.425V104.37H209.266V105H199.221V104.37H201.146V79.38H199.081V78.75H207.656V95.725L208.216 95.515L216.091 88.97H212.801V88.34H219.696V88.97H217.246L213.081 92.505L219.136 104.37H220.396V105H210.666ZM229.241 105.35C226.231 105.35 223.968 104.58 222.451 103.04C220.958 101.477 220.211 99.3183 220.211 96.565C220.211 93.7883 221.051 91.665 222.731 90.195C224.434 88.725 226.593 87.99 229.206 87.99C234.503 87.99 237.046 90.65 236.836 95.97H226.966V97.335C226.966 99.6217 227.258 101.348 227.841 102.515C228.424 103.682 229.439 104.265 230.886 104.265C233.593 104.265 235.366 102.818 236.206 99.925L236.836 100.03C236.393 101.71 235.588 103.017 234.421 103.95C233.278 104.883 231.551 105.35 229.241 105.35ZM227.001 95.27H230.606V93.555C230.606 91.665 230.489 90.3817 230.256 89.705C230.046 89.005 229.603 88.655 228.926 88.655C228.273 88.655 227.783 89.0283 227.456 89.775C227.153 90.4983 227.001 91.7583 227.001 93.555V95.27Z" fill="#151515"/>
<path d="M91.4121 50.2C91.4121 45.7333 93.3454 42.0667 97.2121 39.2C101.079 36.3333 106.879 34.9 114.612 34.9C122.345 34.9 128.279 36.3333 132.412 39.2C136.612 42.0667 138.712 46.3667 138.712 52.1C138.712 53.9667 138.545 55.6667 138.212 57.2C137.879 58.6667 137.112 60.2333 135.912 61.9C134.779 63.5 133.645 64.9333 132.512 66.2C131.445 67.4667 129.579 69.1333 126.912 71.2C122.912 74.4 118.712 77.6 114.312 80.8C109.912 83.9333 107.345 85.7667 106.612 86.3L100.512 90.7H124.512C129.112 90.7 132.379 89.7 134.312 87.7C136.245 85.7 137.612 82.5667 138.412 78.3H140.112L139.112 106H92.1121V94.4L102.212 85.1C109.079 78.8333 113.945 73.2667 116.812 68.4C119.679 63.4667 121.112 58.0667 121.112 52.2C121.112 46.2667 120.479 42.2333 119.212 40.1C117.945 37.9 115.812 36.8 112.812 36.8C109.812 36.8 107.712 37.5667 106.512 39.1C105.312 40.6333 104.712 42.1 104.712 43.5C104.712 44.9 104.912 46.1333 105.312 47.2H108.312C108.845 48.6 109.112 50.3 109.112 52.3C109.112 54.2333 108.279 55.9333 106.612 57.4C104.945 58.8 102.745 59.5 100.012 59.5C97.2788 59.5 95.1454 58.6333 93.6121 56.9C92.1454 55.1 91.4121 52.8667 91.4121 50.2Z" fill="#151515"/>
</svg>
